<?xml version="1.0" standalone="no"?>
<!DOCTYPE svg PUBLIC "-//W3C//DTD SVG 20010904//EN"
 "http://www.w3.org/TR/2001/REC-SVG-20010904/DTD/svg10.dtd">
<svg version="1.0" xmlns="http://www.w3.org/2000/svg"
 width="520.000000pt" height="520.000000pt" viewBox="0 0 520.000000 520.000000"
 preserveAspectRatio="xMidYMid meet">
<metadata>
Created by potrace 1.11, written by Peter Selinger 2001-2013
</metadata>
<g transform="translate(0.000000,520.000000) scale(0.100000,-0.100000)"
fill="#000000" stroke="none">
<path d="M2380 5169 c-1153 -99 -2104 -964 -2315 -2106 -122 -657 20 -1336
396 -1898 386 -577 990 -973 1676 -1100 806 -149 1637 99 2241 669 317 300
576 726 698 1150 211 733 89 1515 -337 2151 -519 776 -1429 1214 -2359 1134z
m1226 -1420 c18 -20 19 -50 22 -803 3 -861 2 -877 -58 -997 -71 -140 -223
-232 -458 -275 -118 -22 -426 -30 -561 -14 -232 26 -387 87 -485 190 -115 120
-136 217 -136 616 0 150 4 284 9 297 22 57 19 57 310 57 259 0 268 -1 287 -21
17 -19 19 -43 24 -248 4 -194 8 -231 23 -254 35 -53 61 -62 183 -62 98 0 116
3 141 21 60 44 58 15 63 782 5 682 6 704 24 718 16 11 75 14 306 14 279 0 287
-1 306 -21z"/>
<path d="M3278 2862 l-3 -647 -33 -67 c-37 -75 -73 -110 -148 -145 -77 -35
-237 -56 -369 -49 -261 15 -378 75 -437 225 -18 47 -22 80 -25 205 -2 82 -5
151 -7 154 -3 2 -9 1 -15 -3 -24 -14 -5 -319 24 -389 22 -52 90 -123 145 -151
103 -52 150 -60 370 -60 188 0 211 2 275 23 121 41 168 83 223 199 l27 58 3
648 c2 571 1 647 -12 647 -14 0 -16 -79 -18 -648z"/>
</g>
</svg>
